<svg width="30" height="22" viewBox="0 0 30 22" fill="none" xmlns="http://www.w3.org/2000/svg">
<path d="M1.07143 4.04082H28.9286C29.5203 4.04082 30 3.63881 30 3.14286V0.897959C30 0.402005 29.5203 0 28.9286 0H1.07143C0.479665 0 0 0.402005 0 0.897959V3.14286C0 3.63881 0.479665 4.04082 1.07143 4.04082ZM1.07143 13.0204H28.9286C29.5203 13.0204 30 12.6184 30 12.1224V9.87755C30 9.3816 29.5203 8.97959 28.9286 8.97959H1.07143C0.479665 8.97959 0 9.3816 0 9.87755V12.1224C0 12.6184 0.479665 13.0204 1.07143 13.0204ZM1.07143 22H28.9286C29.5203 22 30 21.598 30 21.102V18.8571C30 18.3612 29.5203 17.9592 28.9286 17.9592H1.07143C0.479665 17.9592 0 18.3612 0 18.8571V21.102C0 21.598 0.479665 22 1.07143 22Z" fill="#FFF"/>
</svg>
