<svg width="160" height="29" viewBox="0 0 160 29" fill="none" xmlns="http://www.w3.org/2000/svg">
<path d="M15.2148 28H6.11328C8.02734 21.0859 9.38802 12.6484 10.1953 2.6875C10.1953 2.51823 10.4036 2.26432 10.8203 1.92578C11.25 1.58724 11.6081 1.41797 11.8945 1.41797H20.6055C18.9258 8.48828 17.7018 16.9193 16.9336 26.7109C16.9336 26.8802 16.7253 27.1406 16.3086 27.4922C15.8919 27.8307 15.5273 28 15.2148 28ZM24.3555 13.6445C24.3555 11.8607 24.069 9.88151 23.4961 7.70703C22.9362 5.53255 22.3307 3.95703 21.6797 2.98047C21.7578 2.38151 21.9531 1.86068 22.2656 1.41797H28.3398C27.9232 5.33724 27.3698 8.98307 26.6797 12.3555C26.6276 12.5508 26.3086 12.8177 25.7227 13.1562C25.1497 13.4818 24.694 13.6445 24.3555 13.6445ZM0.566406 13.625C0.670573 12.1016 0.917969 10.1029 1.30859 7.62891C1.69922 5.14193 1.99219 3.53385 2.1875 2.80469C2.27865 2.54427 2.5 2.2513 2.85156 1.92578C3.21615 1.58724 3.51562 1.41797 3.75 1.41797H9.6875C8.35938 3.00651 7.33724 4.47135 6.62109 5.8125C5.91797 7.15365 5.23438 8.45573 4.57031 9.71875C3.91927 10.9688 3.41797 11.9193 3.06641 12.5703C2.98828 12.7135 2.6237 12.9284 1.97266 13.2148C1.33464 13.4883 0.865885 13.625 0.566406 13.625ZM43.5352 0.675781C42.5065 1.54818 41.9922 2.60938 41.9922 3.85938C41.9922 5.09635 42.3307 6.33984 43.0078 7.58984C43.6979 8.82682 44.4987 9.88151 45.4102 10.7539C46.3216 11.6263 47.0247 12.3229 47.5195 12.8438C48.0273 13.3516 48.5938 13.9701 49.2188 14.6992C49.8568 15.4154 50.3581 16.0599 50.7227 16.6328C51.6211 18.026 52.0703 19.25 52.0703 20.3047C52.0703 21.3464 51.849 22.3164 51.4062 23.2148C50.9766 24.1133 50.3581 24.9336 49.5508 25.6758C48.7565 26.4049 47.7344 27.0104 46.4844 27.4922C45.2474 27.974 43.8802 28.2474 42.3828 28.3125C42.7995 27.7135 43.0078 27.0885 43.0078 26.4375C43.0078 25.7734 42.8711 25.1029 42.5977 24.4258C42.3242 23.7357 41.9076 23 41.3477 22.2188C40.4492 20.9557 39.4401 19.7188 38.3203 18.5078C37.2135 17.2969 36.4388 16.431 35.9961 15.9102C35.5664 15.3893 35.0781 14.7318 34.5312 13.9375C33.4635 12.401 32.9297 10.8581 32.9297 9.30859C32.9297 7.75911 33.4049 6.32031 34.3555 4.99219C35.306 3.66406 36.5885 2.61589 38.2031 1.84766C39.8307 1.07943 41.6081 0.688802 43.5352 0.675781ZM50.0391 12.4727C50.0391 11.2096 49.8112 9.90755 49.3555 8.56641C48.457 5.94922 46.9596 3.83984 44.8633 2.23828C44.8893 2.00391 45.1107 1.72396 45.5273 1.39844C45.944 1.07292 46.2891 0.910156 46.5625 0.910156C47.513 0.910156 48.6198 1.09896 49.8828 1.47656C51.1589 1.85417 52.168 2.21875 52.9102 2.57031C52.9753 2.96094 53.0078 3.64453 53.0078 4.62109C53.0078 5.58464 52.9167 6.79557 52.7344 8.25391C52.5521 9.69922 52.3307 10.8451 52.0703 11.6914C51.9922 11.8867 51.7122 12.069 51.2305 12.2383C50.7617 12.3945 50.3646 12.4727 50.0391 12.4727ZM40.6836 26.6133C40.5273 27.4987 40.2865 28.0911 39.9609 28.3906C38.5938 28.3906 36.9792 28.2148 35.1172 27.8633C33.2552 27.5117 31.901 27.0625 31.0547 26.5156C31.0417 26.2292 31.0352 25.819 31.0352 25.2852C31.0352 22.7461 31.3346 20.3372 31.9336 18.0586C31.9857 17.8503 32.207 17.5898 32.5977 17.2773C32.9883 16.9518 33.3398 16.7891 33.6523 16.7891C33.9518 18.2214 34.4857 19.6602 35.2539 21.1055C36.0352 22.5508 36.9141 23.7747 37.8906 24.7773C38.8802 25.7669 39.8112 26.3789 40.6836 26.6133ZM66.6797 28H57.5781C59.3229 21.6849 60.612 13.2474 61.4453 2.6875C61.4453 2.51823 61.6602 2.26432 62.0898 1.92578C62.5195 1.58724 62.8841 1.41797 63.1836 1.41797H72.2461C70.3971 9.29557 69.1081 17.7201 68.3789 26.6914C68.3789 26.8607 68.1706 27.1211 67.7539 27.4727C67.3372 27.8242 66.9792 28 66.6797 28ZM77.1289 18.2148C77.3242 17.8372 77.6953 17.4987 78.2422 17.1992C78.7891 16.8997 79.2904 16.75 79.7461 16.75C79.1081 22.3229 78.6458 25.5977 78.3594 26.5742C78.2422 26.8477 78.0078 27.1536 77.6562 27.4922C77.3047 27.8307 77.0182 28 76.7969 28H69.2773C70.8268 26.8411 72.2852 25.3958 73.6523 23.6641C75.0195 21.9193 76.1784 20.1029 77.1289 18.2148ZM91.2891 28.0781C92.6823 27.2969 93.8086 26.2747 94.668 25.0117C95.5273 23.7357 95.957 22.2057 95.957 20.4219C95.957 18.8203 95.3971 17.5312 94.2773 16.5547C93.3268 15.7214 91.9727 15.2656 90.2148 15.1875C90.1888 15.0312 90.1758 14.7708 90.1758 14.4062C90.1758 14.0417 90.2799 13.6836 90.4883 13.332C91.8294 13.332 93.0339 12.987 94.1016 12.2969C95.1823 11.5938 95.9961 10.7083 96.543 9.64062C97.0898 8.57292 97.3633 7.36849 97.3633 6.02734C97.3633 4.67318 96.862 3.57292 95.8594 2.72656C95.8594 2.53125 96.0807 2.26432 96.5234 1.92578C96.9661 1.57422 97.3438 1.39844 97.6562 1.39844C99.6224 1.39844 101.458 1.86719 103.164 2.80469C103.997 3.27344 104.674 3.90495 105.195 4.69922C105.729 5.48047 105.996 6.34635 105.996 7.29688C105.996 8.23438 105.762 9.08724 105.293 9.85547C104.837 10.6237 104.238 11.2617 103.496 11.7695C102.767 12.2773 101.908 12.7135 100.918 13.0781C99.1602 13.7422 97.1615 14.1458 94.9219 14.2891C97.8776 14.2891 100.195 14.6797 101.875 15.4609C103.503 16.2031 104.583 17.1536 105.117 18.3125C105.443 19.0026 105.605 19.8359 105.605 20.8125C105.605 21.7891 105.397 22.7201 104.98 23.6055C104.564 24.4779 103.997 25.207 103.281 25.793C102.578 26.3789 101.745 26.8737 100.781 27.2773C99.8177 27.668 98.8086 27.9479 97.7539 28.1172C96.7122 28.2995 95.6185 28.3906 94.4727 28.3906C93.3268 28.3906 92.2656 28.2865 91.2891 28.0781ZM86.2891 17.9023C86.7969 20.0117 87.3958 21.7565 88.0859 23.1367C88.776 24.5169 89.7526 25.5846 91.0156 26.3398C90.9896 26.5612 90.6771 26.8802 90.0781 27.2969C89.4792 27.7005 89.0365 27.9023 88.75 27.9023C87.8255 27.8112 86.8294 27.6029 85.7617 27.2773C84.694 26.9388 83.9258 26.6328 83.457 26.3594C83.8997 22.6615 84.2383 20.1484 84.4727 18.8203C85.0326 18.3646 85.638 18.0586 86.2891 17.9023ZM85.4883 11.4375C85.8008 8.45573 86.3542 5.8125 87.1484 3.50781C87.2786 3.27344 87.5 2.99349 87.8125 2.66797C88.138 2.34245 88.4375 2.14714 88.7109 2.08203C91.276 1.52214 93.457 1.22266 95.2539 1.18359C93.8477 2.1862 92.5391 3.38411 91.3281 4.77734C90.1302 6.17057 88.7565 7.96094 87.207 10.1484C87.0378 10.3958 86.7773 10.6758 86.4258 10.9883C86.0742 11.2878 85.7617 11.4375 85.4883 11.4375ZM130.469 1.39844C128.737 2.1276 127.148 3.16276 125.703 4.50391C124.271 5.84505 123.079 7.34896 122.129 9.01562C120.15 12.5182 119.16 16.2487 119.16 20.207C119.16 22.4987 119.512 24.6341 120.215 26.6133C120.202 26.7956 119.974 27.0625 119.531 27.4141C119.102 27.7526 118.737 27.9219 118.438 27.9219C115.99 27.4401 114.062 26.2487 112.656 24.3477C111.263 22.4466 110.566 20.1484 110.566 17.4531C110.566 15.5521 110.885 13.7422 111.523 12.0234C112.161 10.3047 113.04 8.79427 114.16 7.49219C115.28 6.1901 116.576 5.05729 118.047 4.09375C121.042 2.15365 124.395 1.18359 128.105 1.18359C128.965 1.18359 129.753 1.25521 130.469 1.39844ZM121.367 14.6211C122.044 13.7487 122.897 13.0846 123.926 12.6289C124.954 12.1602 126.029 11.9258 127.148 11.9258C128.919 11.9258 130.417 12.4661 131.641 13.5469C132.865 14.6146 133.477 16.0599 133.477 17.8828C133.477 19.7057 133.112 21.2878 132.383 22.6289C131.654 23.9701 130.677 25.0508 129.453 25.8711C126.953 27.5508 123.997 28.3906 120.586 28.3906C121.471 28.1302 122.331 27.4596 123.164 26.3789C124.01 25.2852 124.681 24.0221 125.176 22.5898C125.684 21.1576 125.938 19.8099 125.938 18.5469C125.938 15.8646 124.785 14.5234 122.48 14.5234C122.168 14.5234 121.797 14.556 121.367 14.6211ZM139.434 18.4688C140.996 22.5182 142.839 25.2461 144.961 26.6523C144.922 26.8867 144.694 27.1667 144.277 27.4922C143.874 27.8047 143.529 27.9609 143.242 27.9609C141.068 27.7135 138.991 27.1667 137.012 26.3203C137.311 23.7812 137.65 21.457 138.027 19.3477C138.353 19.0482 138.822 18.7552 139.434 18.4688ZM145.723 28.2734C148.626 25.6302 150.078 23.0586 150.078 20.5586C150.078 18.8008 149.264 17.3815 147.637 16.3008C146.009 15.207 143.639 14.6602 140.527 14.6602C139.967 14.6602 139.395 14.6797 138.809 14.7188C140.241 9.27604 141.445 5.42839 142.422 3.17578C142.526 2.92839 142.767 2.61589 143.145 2.23828C143.535 1.86068 143.854 1.67188 144.102 1.67188H149.629C148.053 4.77083 147.142 8.52734 146.895 12.9414C147.467 12.8893 148.184 12.8633 149.043 12.8633C149.902 12.8633 150.801 12.9284 151.738 13.0586C152.689 13.1758 153.626 13.3971 154.551 13.7227C155.475 14.0352 156.257 14.4453 156.895 14.9531C158.353 16.0729 159.082 17.668 159.082 19.7383C159.082 22.9284 157.363 25.3438 153.926 26.9844C151.973 27.9219 149.837 28.3906 147.52 28.3906C146.777 28.3906 146.178 28.3516 145.723 28.2734ZM156.328 10.5C155.82 8.50781 155.195 7.00391 154.453 5.98828C153.724 4.97266 152.585 4.05469 151.035 3.23438C151.126 2.67448 151.322 2.15365 151.621 1.67188H159.355C159.251 4.13281 158.809 6.64583 158.027 9.21094C157.949 9.44531 157.721 9.71875 157.344 10.0312C156.966 10.3438 156.628 10.5 156.328 10.5Z" fill="#0D97AE"/>
</svg>
