<svg width="128" height="23" viewBox="0 0 128 23" fill="none" xmlns="http://www.w3.org/2000/svg">
<path d="M12.5312 22H5.25C6.78125 16.4688 7.86979 9.71875 8.51562 1.75C8.51562 1.61458 8.68229 1.41146 9.01562 1.14062C9.35938 0.869792 9.64583 0.734375 9.875 0.734375H16.8438C15.5 6.39062 14.5208 13.1354 13.9062 20.9688C13.9062 21.1042 13.7396 21.3125 13.4062 21.5938C13.0729 21.8646 12.7812 22 12.5312 22ZM19.8438 10.5156C19.8438 9.08854 19.6146 7.50521 19.1562 5.76562C18.7083 4.02604 18.224 2.76562 17.7031 1.98438C17.7656 1.50521 17.9219 1.08854 18.1719 0.734375H23.0312C22.6979 3.86979 22.2552 6.78646 21.7031 9.48438C21.6615 9.64062 21.4062 9.85417 20.9375 10.125C20.4792 10.3854 20.1146 10.5156 19.8438 10.5156ZM0.8125 10.5C0.895833 9.28125 1.09375 7.68229 1.40625 5.70312C1.71875 3.71354 1.95312 2.42708 2.10938 1.84375C2.18229 1.63542 2.35938 1.40104 2.64062 1.14062C2.93229 0.869792 3.17188 0.734375 3.35938 0.734375H8.10938C7.04688 2.00521 6.22917 3.17708 5.65625 4.25C5.09375 5.32292 4.54688 6.36458 4.01562 7.375C3.49479 8.375 3.09375 9.13542 2.8125 9.65625C2.75 9.77083 2.45833 9.94271 1.9375 10.1719C1.42708 10.3906 1.05208 10.5 0.8125 10.5ZM35.1875 0.140625C34.3646 0.838542 33.9531 1.6875 33.9531 2.6875C33.9531 3.67708 34.224 4.67188 34.7656 5.67188C35.3177 6.66146 35.9583 7.50521 36.6875 8.20312C37.4167 8.90104 37.9792 9.45833 38.375 9.875C38.7812 10.2812 39.2344 10.776 39.7344 11.3594C40.2448 11.9323 40.6458 12.4479 40.9375 12.9062C41.6562 14.0208 42.0156 15 42.0156 15.8438C42.0156 16.6771 41.8385 17.4531 41.4844 18.1719C41.1406 18.8906 40.6458 19.5469 40 20.1406C39.3646 20.724 38.5469 21.2083 37.5469 21.5938C36.5573 21.9792 35.4635 22.1979 34.2656 22.25C34.599 21.7708 34.7656 21.2708 34.7656 20.75C34.7656 20.2188 34.6562 19.6823 34.4375 19.1406C34.2188 18.5885 33.8854 18 33.4375 17.375C32.7188 16.3646 31.9115 15.375 31.0156 14.4062C30.1302 13.4375 29.5104 12.7448 29.1562 12.3281C28.8125 11.9115 28.4219 11.3854 27.9844 10.75C27.1302 9.52083 26.7031 8.28646 26.7031 7.04688C26.7031 5.80729 27.0833 4.65625 27.8438 3.59375C28.6042 2.53125 29.6302 1.69271 30.9219 1.07812C32.224 0.463542 33.6458 0.151042 35.1875 0.140625ZM40.3906 9.57812C40.3906 8.56771 40.2083 7.52604 39.8438 6.45312C39.125 4.35938 37.9271 2.67188 36.25 1.39062C36.2708 1.20312 36.4479 0.979167 36.7812 0.71875C37.1146 0.458333 37.3906 0.328125 37.6094 0.328125C38.3698 0.328125 39.2552 0.479167 40.2656 0.78125C41.2865 1.08333 42.0938 1.375 42.6875 1.65625C42.7396 1.96875 42.7656 2.51562 42.7656 3.29688C42.7656 4.06771 42.6927 5.03646 42.5469 6.20312C42.401 7.35938 42.224 8.27604 42.0156 8.95312C41.9531 9.10938 41.7292 9.25521 41.3438 9.39062C40.9688 9.51562 40.651 9.57812 40.3906 9.57812ZM32.9062 20.8906C32.7812 21.599 32.5885 22.0729 32.3281 22.3125C31.2344 22.3125 29.9427 22.1719 28.4531 21.8906C26.9635 21.6094 25.8802 21.25 25.2031 20.8125C25.1927 20.5833 25.1875 20.2552 25.1875 19.8281C25.1875 17.7969 25.4271 15.8698 25.9062 14.0469C25.9479 13.8802 26.125 13.6719 26.4375 13.4219C26.75 13.1615 27.0312 13.0312 27.2812 13.0312C27.5208 14.1771 27.9479 15.3281 28.5625 16.4844C29.1875 17.6406 29.8906 18.6198 30.6719 19.4219C31.4635 20.2135 32.2083 20.7031 32.9062 20.8906ZM53.7031 22H46.4219C47.8177 16.9479 48.849 10.1979 49.5156 1.75C49.5156 1.61458 49.6875 1.41146 50.0312 1.14062C50.375 0.869792 50.6667 0.734375 50.9062 0.734375H58.1562C56.6771 7.03646 55.6458 13.776 55.0625 20.9531C55.0625 21.0885 54.8958 21.2969 54.5625 21.5781C54.2292 21.8594 53.9427 22 53.7031 22ZM62.0625 14.1719C62.2188 13.8698 62.5156 13.599 62.9531 13.3594C63.3906 13.1198 63.7917 13 64.1562 13C63.6458 17.4583 63.276 20.0781 63.0469 20.8594C62.9531 21.0781 62.7656 21.3229 62.4844 21.5938C62.2031 21.8646 61.974 22 61.7969 22H55.7812C57.0208 21.0729 58.1875 19.9167 59.2812 18.5312C60.375 17.1354 61.3021 15.6823 62.0625 14.1719ZM73.3906 22.0625C74.5052 21.4375 75.4062 20.6198 76.0938 19.6094C76.7812 18.5885 77.125 17.3646 77.125 15.9375C77.125 14.6562 76.6771 13.625 75.7812 12.8438C75.0208 12.1771 73.9375 11.8125 72.5312 11.75C72.5104 11.625 72.5 11.4167 72.5 11.125C72.5 10.8333 72.5833 10.5469 72.75 10.2656C73.8229 10.2656 74.7865 9.98958 75.6406 9.4375C76.5052 8.875 77.1562 8.16667 77.5938 7.3125C78.0312 6.45833 78.25 5.49479 78.25 4.42188C78.25 3.33854 77.849 2.45833 77.0469 1.78125C77.0469 1.625 77.224 1.41146 77.5781 1.14062C77.9323 0.859375 78.2344 0.71875 78.4844 0.71875C80.0573 0.71875 81.526 1.09375 82.8906 1.84375C83.5573 2.21875 84.099 2.72396 84.5156 3.35938C84.9427 3.98438 85.1562 4.67708 85.1562 5.4375C85.1562 6.1875 84.9688 6.86979 84.5938 7.48438C84.2292 8.09896 83.75 8.60938 83.1562 9.01562C82.5729 9.42188 81.8854 9.77083 81.0938 10.0625C79.6875 10.5938 78.0885 10.9167 76.2969 11.0312C78.6615 11.0312 80.5156 11.3438 81.8594 11.9688C83.1615 12.5625 84.026 13.3229 84.4531 14.25C84.7135 14.8021 84.8438 15.4688 84.8438 16.25C84.8438 17.0312 84.6771 17.776 84.3438 18.4844C84.0104 19.1823 83.5573 19.7656 82.9844 20.2344C82.4219 20.7031 81.7552 21.099 80.9844 21.4219C80.2135 21.7344 79.4062 21.9583 78.5625 22.0938C77.7292 22.2396 76.8542 22.3125 75.9375 22.3125C75.0208 22.3125 74.1719 22.2292 73.3906 22.0625ZM69.3906 13.9219C69.7969 15.6094 70.276 17.0052 70.8281 18.1094C71.3802 19.2135 72.1615 20.0677 73.1719 20.6719C73.151 20.849 72.901 21.1042 72.4219 21.4375C71.9427 21.7604 71.5885 21.9219 71.3594 21.9219C70.6198 21.849 69.8229 21.6823 68.9688 21.4219C68.1146 21.151 67.5 20.9062 67.125 20.6875C67.4792 17.7292 67.75 15.7188 67.9375 14.6562C68.3854 14.2917 68.8698 14.0469 69.3906 13.9219ZM68.75 8.75C69 6.36458 69.4427 4.25 70.0781 2.40625C70.1823 2.21875 70.3594 1.99479 70.6094 1.73438C70.8698 1.47396 71.1094 1.31771 71.3281 1.26562C73.3802 0.817708 75.125 0.578125 76.5625 0.546875C75.4375 1.34896 74.3906 2.30729 73.4219 3.42188C72.4635 4.53646 71.3646 5.96875 70.125 7.71875C69.9896 7.91667 69.7812 8.14062 69.5 8.39062C69.2188 8.63021 68.9688 8.75 68.75 8.75ZM104.734 0.71875C103.349 1.30208 102.078 2.13021 100.922 3.20312C99.776 4.27604 98.8229 5.47917 98.0625 6.8125C96.4792 9.61458 95.6875 12.599 95.6875 15.7656C95.6875 17.599 95.9688 19.3073 96.5312 20.8906C96.5208 21.0365 96.3385 21.25 95.9844 21.5312C95.6406 21.8021 95.349 21.9375 95.1094 21.9375C93.151 21.5521 91.6094 20.599 90.4844 19.0781C89.3698 17.5573 88.8125 15.7188 88.8125 13.5625C88.8125 12.0417 89.0677 10.5938 89.5781 9.21875C90.0885 7.84375 90.7917 6.63542 91.6875 5.59375C92.5833 4.55208 93.6198 3.64583 94.7969 2.875C97.1927 1.32292 99.875 0.546875 102.844 0.546875C103.531 0.546875 104.161 0.604167 104.734 0.71875ZM97.4531 11.2969C97.9948 10.599 98.6771 10.0677 99.5 9.70312C100.323 9.32812 101.182 9.14062 102.078 9.14062C103.495 9.14062 104.693 9.57292 105.672 10.4375C106.651 11.2917 107.141 12.4479 107.141 13.9062C107.141 15.3646 106.849 16.6302 106.266 17.7031C105.682 18.776 104.901 19.6406 103.922 20.2969C101.922 21.6406 99.5573 22.3125 96.8281 22.3125C97.5365 22.1042 98.224 21.5677 98.8906 20.7031C99.5677 19.8281 100.104 18.8177 100.5 17.6719C100.906 16.526 101.109 15.4479 101.109 14.4375C101.109 12.2917 100.188 11.2188 98.3438 11.2188C98.0938 11.2188 97.7969 11.2448 97.4531 11.2969ZM111.906 14.375C113.156 17.6146 114.63 19.7969 116.328 20.9219C116.297 21.1094 116.115 21.3333 115.781 21.5938C115.458 21.8438 115.182 21.9688 114.953 21.9688C113.214 21.7708 111.552 21.3333 109.969 20.6562C110.208 18.625 110.479 16.7656 110.781 15.0781C111.042 14.8385 111.417 14.6042 111.906 14.375ZM116.938 22.2188C119.26 20.1042 120.422 18.0469 120.422 16.0469C120.422 14.6406 119.771 13.5052 118.469 12.6406C117.167 11.7656 115.271 11.3281 112.781 11.3281C112.333 11.3281 111.875 11.3438 111.406 11.375C112.552 7.02083 113.516 3.94271 114.297 2.14062C114.38 1.94271 114.573 1.69271 114.875 1.39062C115.188 1.08854 115.443 0.9375 115.641 0.9375H120.062C118.802 3.41667 118.073 6.42188 117.875 9.95312C118.333 9.91146 118.906 9.89062 119.594 9.89062C120.281 9.89062 121 9.94271 121.75 10.0469C122.51 10.1406 123.26 10.3177 124 10.5781C124.74 10.8281 125.365 11.1562 125.875 11.5625C127.042 12.4583 127.625 13.7344 127.625 15.3906C127.625 17.9427 126.25 19.875 123.5 21.1875C121.938 21.9375 120.229 22.3125 118.375 22.3125C117.781 22.3125 117.302 22.2812 116.938 22.2188ZM125.422 8C125.016 6.40625 124.516 5.20312 123.922 4.39062C123.339 3.57812 122.427 2.84375 121.188 2.1875C121.26 1.73958 121.417 1.32292 121.656 0.9375H127.844C127.76 2.90625 127.406 4.91667 126.781 6.96875C126.719 7.15625 126.536 7.375 126.234 7.625C125.932 7.875 125.661 8 125.422 8Z" fill="white"/>
</svg>
